<?xml version="1.0" encoding="utf-8"?>
<!-- Generator: Adobe Illustrator 26.2.1, SVG Export Plug-In . SVG Version: 6.00 Build 0)  -->
<svg version="1.1" id="Livello_1" xmlns="http://www.w3.org/2000/svg" xmlns:xlink="http://www.w3.org/1999/xlink" x="0px" y="0px"
	 viewBox="0 0 797.9 423.4" style="enable-background:new 0 0 797.9 423.4;" xml:space="preserve">
<style type="text/css">
	.st0{fill:#FFFFFF;}
</style>
<g>
	<path class="st0" d="M90.8,142.6l11.7,46.1h12.9L76,32.2h-8.8L29.4,188.7h12.9l11-46.1H90.8z M71.5,66.4l14.2,56.4H58.3L71.5,66.4z
		"/>
	<path class="st0" d="M164.4,170c-10.2,0-18.6-5.5-25.1-16.5s-9.8-25-9.8-42.1c0-16.9,3.3-31,10-42.3s15-16.9,25.1-16.9
		c9.8,0,19.8,5.2,30.1,15.6V43.9C183.4,35.3,173.1,31,163.9,31c-13.4,0-24.6,7.7-33.7,23.2s-13.7,34.5-13.7,57.2
		c-0.1,13.5,1.9,26.9,6,39.8c4,12.3,9.4,21.9,16.2,28.9c6.5,6.9,15.6,10.7,25,10.5c12.1,0,22.7-4.5,31.9-13.4v-24.5
		C185.4,164.2,175,170,164.4,170"/>
	<path class="st0" d="M229.9,180.1c6.5,6.9,15.6,10.7,25,10.5c12.1,0,22.7-4.5,31.9-13.4v-24.5c-10.2,11.6-20.5,17.4-31.2,17.4
		c-10.2,0-18.6-5.5-25.1-16.5s-9.8-25-9.8-42.1c0-16.9,3.3-31,10-42.3s15-16.9,25.1-16.9c9.8,0,19.9,5.2,30.1,15.6v-24
		C274.6,35.3,264.3,31,255.1,31c-13.4,0-24.6,7.7-33.7,23.2s-13.7,34.5-13.7,57.2c-0.1,13.5,1.9,26.9,6,39.8
		C217.6,163.5,223,173.1,229.9,180.1"/>
	<path class="st0" d="M333.5,32.2l-37.7,156.6h12.9l11-46.1h37.5l11.7,46.1h12.9L342.4,32.2H333.5z M324.7,122.8l13.1-56.4
		l14.2,56.4H324.7z"/>
	<path class="st0" d="M459.2,165.9c4.4-7.9,7.7-16.3,9.7-25.1c2.3-9.8,3.5-19.8,3.4-29.9c0.1-13.7-2-27.4-6.2-40.4
		c-4.1-12.3-9.6-21.7-16.6-28S433.1,33,421.1,33h-29.6v155.5h27.8c7.8,0,13.1-0.4,15.9-1.2c3.3-1,6.3-2.6,9.1-4.6
		C450,178.9,454.9,173.3,459.2,165.9 M443.6,160.6c-2.5,2.5-5.5,4.4-8.7,5.8c-3.5,1.5-8.4,2.3-14.7,2.3h-16.1V52.9h15.7
		c6,0,10.4,0.4,13.1,1.2c3.2,1.1,6.1,2.8,8.7,5c3.2,2.8,5.9,6.1,8.1,9.7c6.4,10.6,9.6,24.2,9.6,40.9c0,17-3.1,31.1-9.3,42.2
		C448.3,155.1,446.1,158,443.6,160.6"/>
	<polygon class="st0" points="539,168.7 500.6,168.7 500.6,120.3 536.6,120.3 536.6,100.4 500.6,100.4 500.6,52.9 537.8,52.9 
		537.8,33 488,33 488,188.5 539,188.5 	"/>
	<polygon class="st0" points="564.7,67.6 592.1,127.8 594.4,127.8 621.4,67.6 621.4,188.7 634.1,188.7 634.1,33 622.3,33 593.3,97 
		564.1,33 552.2,33 552.2,188.7 564.7,188.7 	"/>
	<rect x="653.1" y="33" class="st0" width="12.6" height="155.7"/>
	<path class="st0" d="M713.3,32.2l-37.7,156.6h12.9l11-46.1H737l11.7,46.1h12.9L722.1,32.2H713.3z M704.4,122.8l13.1-56.4l14.2,56.4
		H704.4z"/>
</g>
<g>
	<path class="st0" d="M98.6,213.5c-6.6-3.8-15.5-5.7-26.8-5.7H43.9v92.4h26.2c7.3,0,12.3-0.2,14.9-0.7c3-0.6,5.8-1.5,8.6-2.7
		c5.4-2.3,10.2-5.7,14.1-10c4-4.3,7.1-9.4,9.1-14.9c5-13.7,4.1-28.8-2.6-41.8C110.7,223.2,105.3,217.4,98.6,213.5 M99,278.5
		c-1.8,2-3.8,3.7-6,5.1c-2.5,1.6-5.3,2.8-8.2,3.5c-3.3,0.9-7.9,1.3-13.8,1.3H55.8v-68.8h14.8c4.1-0.1,8.3,0.1,12.4,0.7
		c2.9,0.6,5.6,1.6,8.2,3c2.9,1.5,5.4,3.4,7.6,5.8c6,6.3,9,14.4,9,24.3C107.8,263.5,104.9,271.9,99,278.5"/>
	<rect x="135" y="207.8" class="st0" width="11.9" height="92.5"/>
	<path class="st0" d="M235.9,251.4c8.4-3.9,12.6-10.4,12.6-19.5c0.1-4.4-0.9-8.7-3-12.5c-2-3.6-5.1-6.6-8.8-8.5
		c-3.8-2.1-9.2-3.1-16-3.1H199v92.5h28.1c6.3,0,11.6-1.2,15.8-3.5c4-2.1,7.3-5.3,9.6-9.1c2.2-3.9,3.4-8.2,3.3-12.7
		c0.1-5.6-1.8-11.1-5.4-15.4C246.6,255.3,241.5,252.5,235.9,251.4 M210.9,219.6h10.2c10.1,0,15.2,4.4,15.2,13.3
		c0.2,3.9-1.3,7.7-4,10.5c-2.7,2.7-7.2,4-13.5,4h-7.9V219.6z M241.4,281.6c-1.3,2.3-3.2,4.1-5.6,5.3c-2.3,1.1-6.7,1.7-13.2,1.7
		h-11.7v-29.3H222c5.9,0,10.2,0.6,12.9,1.7c2.6,1.1,4.8,2.9,6.3,5.2C244.1,270.9,244.1,276.8,241.4,281.6"/>
	<polygon class="st0" points="279.3,259.7 313.2,259.7 313.2,247.8 279.3,247.8 279.3,219.6 314.4,219.6 314.4,207.8 267.4,207.8 
		267.4,300.2 315.5,300.2 315.5,288.4 279.3,288.4 	"/>
	<polygon class="st0" points="340,207.8 328.2,207.8 328.2,300.3 377.3,300.3 377.3,288.3 340,288.3 	"/>
	<polygon class="st0" points="399.6,207.8 387.7,207.8 387.7,300.3 436.9,300.3 436.9,288.3 399.6,288.3 	"/>
	<polygon class="st0" points="459.1,259.7 493.1,259.7 493.1,247.8 459.1,247.8 459.1,219.6 494.2,219.6 494.2,207.8 447.3,207.8 
		447.3,300.2 495.4,300.2 495.4,288.4 459.1,288.4 	"/>
	<path class="st0" d="M556.1,207.3l-35.6,93h12.2l10.4-27.4h35.4l11,27.4h12.1l-37.2-93L556.1,207.3L556.1,207.3z M547.7,261.1
		l12.4-33.5l13.4,33.5H547.7z"/>
	<path class="st0" d="M663.5,281.9c-4.6-8.3-8.1-14.2-10.7-17.5c-2.2-3-4.8-5.7-7.8-8c4.3-1.8,8-4.8,10.4-8.8
		c2.5-4.2,3.7-9.1,3.6-14c0-7.9-2.5-14.1-7.4-18.8s-11.6-6.9-20-6.9H611v92.5h11.9v-40.3h3.1c3.9,0,6.6,0.5,8.3,1.5
		c2.1,1.4,3.9,3,5.5,4.9c2.5,2.8,4.7,5.9,6.7,9.1l4,7.2l3.7,6.8l2.3,3.6c0.3,0.3,0.5,0.7,0.7,1.1l3.6,6.1h14.1l-4.4-6.6
		C668.7,291.1,666.4,287.1,663.5,281.9 M639.7,246.6c-2.2,1.1-6.4,1.7-12.4,1.7h-4.5v-29.2h3.6c5.8,0,10,0.5,12.5,1.5
		c2.5,0.9,4.6,2.7,5.9,5c1.4,2.4,2.1,5.1,2.1,7.9c0.1,2.8-0.6,5.5-1.9,7.9C643.8,243.6,641.9,245.4,639.7,246.6"/>
	<polygon class="st0" points="666,219.5 694.4,219.5 694.4,300.3 706.4,300.3 706.4,219.5 735.2,219.5 735.2,207.7 666,207.7 	"/>
	<rect x="746.6" y="207.8" class="st0" width="11.8" height="92.5"/>
</g>
<g>
	<polygon class="st0" points="10.3,422.6 18.6,422.6 18.6,392.5 41.2,392.5 41.2,384.3 18.6,384.3 18.6,366.2 41.2,366.2 41.2,358 
		10.3,358 	"/>
	<path class="st0" d="M126.2,409.7c-2.2-4.3-4.7-8.4-7.5-12.3c-1.5-2.1-3.4-3.9-5.4-5.5c3-1.2,5.5-3.4,7.2-6.2
		c1.7-3,2.6-6.4,2.5-9.8c0-5.5-1.7-9.9-5.2-13.1s-8.1-4.9-13.9-4.9H89.6v64.6h8.3v-28.1h2.2c2.7,0,4.6,0.3,5.8,1
		c1.4,0.9,2.7,2.1,3.8,3.4c1.7,2,3.3,4.1,4.7,6.4l2.8,5l2.6,4.7l1.6,2.5c0.2,0.4,0.4,0.6,0.5,0.8l2.5,4.2h9.9l-3.1-4.6
		C129.4,415.2,127.7,412.5,126.2,409.7 M109.6,385.1c-1.6,0.8-4.4,1.2-8.6,1.2h-3.2v-20.4h2.5c4.1,0,7,0.3,8.7,1
		c1.7,0.7,3.2,1.9,4.1,3.5c1,1.7,1.4,3.6,1.4,5.5c0.1,1.9-0.4,3.8-1.3,5.5C112.4,383,111.2,384.3,109.6,385.1"/>
	<path class="st0" d="M203.1,357.1c-8.4-0.2-16.5,3.3-22.2,9.5c-5.8,6.3-8.8,14.3-8.8,24c0,9.4,2.9,17.2,8.7,23.4
		c5.5,6.2,13.5,9.6,21.8,9.4c9.1,0,16.7-3.1,22.7-9.4s9-14.1,9-23.6s-3-17.4-8.9-23.8S212,357.1,203.1,357.1 M219.3,407.7
		c-4.1,4.6-10,7.2-16.2,7.1c-6.1,0.2-12-2.4-16-7c-4.3-4.6-6.4-10.4-6.4-17.4c0-7.2,2.1-13.1,6.4-17.7c4.2-4.6,10.1-7.1,16.3-6.9
		c6.1-0.1,11.9,2.4,15.9,7c4.3,4.7,6.7,10.9,6.5,17.3C225.8,397.2,223.6,403,219.3,407.7"/>
	<path class="st0" d="M302.9,387.9l-6.3-4.2c-2.3-1.4-4.4-3.2-6.2-5.3c-1.2-1.5-1.9-3.4-1.9-5.4c0-2.1,0.9-4.1,2.6-5.4
		c1.9-1.5,4.3-2.2,6.7-2.1c4.8,0,9.3,2.2,13.4,6.7v-10.5c-3.8-2.9-8.5-4.5-13.3-4.5c-5,0-9.2,1.6-12.3,4.8s-4.7,7.3-4.7,12.4
		c-0.1,3.2,0.8,6.3,2.5,9c1.7,2.6,4.5,5.2,8.4,7.9l6.3,4.3c5.1,3.5,7.6,7.3,7.6,11.2c0,2.3-0.9,4.5-2.6,6.1
		c-1.8,1.6-4.1,2.5-6.5,2.4c-5.9,0-11.1-3.2-15.5-9.5v11.7c4.3,3.8,9.9,5.9,15.6,5.9c5,0,9-1.6,12.1-4.9s4.7-7.4,4.7-12.6
		C313.5,398.6,310,392.6,302.9,387.9"/>
	<rect x="362" y="358" class="st0" width="8.3" height="64.6"/>
	<polygon class="st0" points="468.3,408.2 429.3,358 422.6,358 422.6,422.6 430.4,422.6 430.4,372.8 469.1,422.6 476.2,422.6 
		476.2,358 468.3,358 	"/>
	<path class="st0" d="M556.2,357.1c-8.4-0.2-16.5,3.3-22.2,9.5c-5.9,6.3-8.8,14.3-8.8,24c0,9.4,2.9,17.2,8.7,23.4
		c5.5,6.2,13.5,9.6,21.8,9.4c9.1,0,16.7-3.1,22.7-9.4s9-14.1,9-23.6s-3-17.4-8.9-23.8S565.2,357.1,556.2,357.1 M572.5,407.7
		c-8.2,8.9-22.1,9.5-31.1,1.3c-0.4-0.4-0.8-0.8-1.2-1.2c-4.3-4.6-6.4-10.4-6.4-17.4c0-7.2,2.2-13.1,6.4-17.7
		c4.2-4.6,10.1-7.1,16.3-6.9c6.1-0.1,11.9,2.4,15.9,7C581,382.8,581.1,397.6,572.5,407.7"/>
	<polygon class="st0" points="682.9,408.2 643.9,358 637.2,358 637.2,422.6 645,422.6 645,372.8 683.7,422.6 690.8,422.6 690.8,358 
		682.9,358 	"/>
	<polygon class="st0" points="750.7,394.2 774.4,394.2 774.4,385.9 750.7,385.9 750.7,366.2 775.2,366.2 775.2,358 742.4,358 
		742.4,422.5 776,422.5 776,414.3 750.7,414.3 	"/>
</g>
<g>
	<path class="st0" d="M737.4,0H60.5C27.1,0,0,27.1,0,60.5v221.4c0,33.4,27.1,60.5,60.5,60.5h676.9c33.4,0,60.5-27.1,60.5-60.5V60.5
		C797.9,27.1,770.8,0,737.4,0 M782.4,281.9c0,24.9-20.2,45.1-45.1,45.1H60.5c-24.9,0-45.1-20.2-45.1-45.1V60.5
		c0-24.9,20.2-45.1,45.1-45.1h676.9c24.9,0,45.1,20.2,45.1,45.1L782.4,281.9L782.4,281.9z"/>
</g>
</svg>
